# xmcd
#
# Track frame offsets:
#	150
#	13260
#	23761
#	36195
#	50254
#	66137
#	80618
#	96019
#	110057
#	128503
#
# Disc length: 1913 seconds
#
# Revision: 0
# Processed by: cddbd v1.5.1PL2 Copyright (c) Steve Scherf et al.
# Submitted via: dBpowerAMP V4.0
#
DISCID=7b07770a
DTITLE=country mixed - Country Gospel
DYEAR=2005
DGENRE=Gospel
TTITLE0=Lifes Railway to Heaven  Patsy Cline
TTITLE1=Canaans Land  The Jordanaires
TTITLE2=This Littler Light Is Mine  Brenda Lee
TTITLE3=Amazing Grace  Lee Greenwood
TTITLE4=Blessed Assurance Pat Boone
TTITLE5=He's Got the Whole World In His Hands Deborah Allen
TTITLE6=Glad Reunion Day  Mark Gray
TTITLE7=He Lives  Ed Bruce
TTITLE8=Just A Closer Walk With Thee  Brenda Lee
TTITLE9=Will The Circle Be Unbroken  Bill Anderson
EXTD=
EXTT0=
EXTT1=
EXTT2=
EXTT3=
EXTT4=
EXTT5=
EXTT6=
EXTT7=
EXTT8=
EXTT9=
PLAYORDER=
